<svg xmlns="http://www.w3.org/2000/svg" version="1.1" xmlns:xlink="http://www.w3.org/1999/xlink" xmlns:svgjs="http://svgjs.dev/svgjs" width="1440" height="250" preserveAspectRatio="none" viewBox="0 0 1440 250"><g mask="url(&quot;#SvgjsMask1000&quot;)" fill="none"><rect width="1440" height="250" x="0" y="0" fill="#0e2a47"></rect><path d="M36 250L286 0L455.5 0L205.5 250z" fill="url(&quot;#SvgjsLinearGradient1001&quot;)"></path><path d="M260.6 250L510.6 0L605.1 0L355.1 250z" fill="url(&quot;#SvgjsLinearGradient1001&quot;)"></path><path d="M491.20000000000005 250L741.2 0L868.7 0L618.7 250z" fill="url(&quot;#SvgjsLinearGradient1001&quot;)"></path><path d="M743.8000000000001 250L993.8000000000001 0L1130.3000000000002 0L880.3000000000001 250z" fill="url(&quot;#SvgjsLinearGradient1001&quot;)"></path><path d="M1429 250L1179 0L1135.5 0L1385.5 250z" fill="url(&quot;#SvgjsLinearGradient1002&quot;)"></path><path d="M1164.4 250L914.4000000000001 0L636.9000000000001 0L886.9000000000001 250z" fill="url(&quot;#SvgjsLinearGradient1002&quot;)"></path><path d="M921.8 250L671.8 0L626.8 0L876.8 250z" fill="url(&quot;#SvgjsLinearGradient1002&quot;)"></path><path d="M692.1999999999999 250L442.19999999999993 0L163.19999999999993 0L413.19999999999993 250z" fill="url(&quot;#SvgjsLinearGradient1002&quot;)"></path><path d="M1228.0706967146164 250L1440 38.070696714616304L1440 250z" fill="url(&quot;#SvgjsLinearGradient1001&quot;)"></path><path d="M0 250L211.9293032853837 250L 0 38.070696714616304z" fill="url(&quot;#SvgjsLinearGradient1002&quot;)"></path></g><defs><mask id="SvgjsMask1000"><rect width="1440" height="250" fill="#ffffff"></rect></mask><linearGradient x1="0%" y1="100%" x2="100%" y2="0%" id="SvgjsLinearGradient1001"><stop stop-color="rgba(15, 70, 185, 0.2)" offset="0"></stop><stop stop-opacity="0" stop-color="rgba(15, 70, 185, 0.2)" offset="0.66"></stop></linearGradient><linearGradient x1="100%" y1="100%" x2="0%" y2="0%" id="SvgjsLinearGradient1002"><stop stop-color="rgba(15, 70, 185, 0.2)" offset="0"></stop><stop stop-opacity="0" stop-color="rgba(15, 70, 185, 0.2)" offset="0.66"></stop></linearGradient></defs></svg>